<svg width="74" height="48" viewBox="0 0 74 48" fill="none" xmlns="http://www.w3.org/2000/svg">
<path d="M31.8926 41.2349C31.8926 40.3453 32.6137 39.6241 33.5033 39.6241H73.7718V42.8456H33.5033C32.6137 42.8456 31.8926 42.1245 31.8926 41.2349Z" fill="#FF4545"/>
<path d="M52.1879 46.3893C52.1879 45.4997 52.909 44.7786 53.7986 44.7786H73.7718V48H53.7986C52.909 48 52.1879 47.2789 52.1879 46.3893Z" fill="#1363DF"/>
<path d="M5.10357 33.9825C3.94267 33.9825 3.187 33.4189 3.187 32.5238C3.187 31.6286 3.89887 31.0982 5.235 31.0098L7.76488 30.833V31.7281C7.76488 33.0542 6.58208 33.9825 5.10357 33.9825ZM4.06314 36.3364C5.60736 36.3364 7.09681 35.5849 7.75393 34.314H7.81964V36.1927H10.9081V27.8492C10.9081 25.418 8.88197 23.8156 5.78259 23.8156C2.77082 23.8156 0.689968 25.418 0.602353 27.7387H3.5265C3.67983 26.8546 4.49027 26.2357 5.65117 26.2357C6.96539 26.2357 7.76488 26.8767 7.76488 28.0481V28.8548L4.75311 29.0427C1.67564 29.2306 0 30.4793 0 32.6895C0 34.8666 1.74135 36.3364 4.06314 36.3364Z" fill="#F5F5F5"/>
<path d="M13.0656 36.1927H16.2635V29.2527C16.2635 27.6392 17.1835 26.5341 18.7168 26.5341C20.2281 26.5341 20.9728 27.4514 20.9728 29.0648V36.1927H24.1708V28.3907C24.1708 25.5506 22.6594 23.8487 19.9872 23.8487C18.1363 23.8487 16.9097 24.6665 16.2197 26.2026H16.154V24.0255H13.0656V36.1927Z" fill="#F5F5F5"/>
<path d="M26.3502 36.1927H29.5482V24.0255H26.3502V36.1927ZM27.9492 22.6994C28.902 22.6994 29.6796 21.9701 29.6796 21.0086C29.6796 20.0472 28.902 19.3289 27.9492 19.3289C27.0073 19.3289 26.2297 20.0472 26.2297 21.0086C26.2297 21.9701 27.0073 22.6994 27.9492 22.6994Z" fill="#F5F5F5"/>
<path d="M31.5633 27.6061C31.5633 29.3853 32.7351 30.5677 35.0022 31.0871L37.2254 31.5955C38.3206 31.8607 38.7368 32.1922 38.7368 32.8222C38.7368 33.6178 37.9592 34.1151 36.6888 34.1151C35.3636 34.1151 34.5422 33.5405 34.3889 32.5127H31.2676C31.4319 34.8555 33.4251 36.4027 36.6012 36.4027C39.7553 36.4027 41.9128 34.8445 41.9128 32.4796C41.9128 30.6672 40.9491 29.7279 38.5287 29.1753L36.2617 28.678C35.1774 28.4238 34.6517 28.015 34.6517 27.4072C34.6517 26.6225 35.4184 26.1031 36.5683 26.1031C37.7949 26.1031 38.5944 26.7109 38.6601 27.6724H41.6171C41.5733 25.3517 39.591 23.8156 36.6121 23.8156C33.5565 23.8156 31.5633 25.3185 31.5633 27.6061Z" fill="#F5F5F5"/>
<path d="M43.6323 36.1927H46.8302V24.0255H43.6323V36.1927ZM45.2312 22.6994C46.184 22.6994 46.9616 21.9701 46.9616 21.0086C46.9616 20.0472 46.184 19.3289 45.2312 19.3289C44.2894 19.3289 43.5118 20.0472 43.5118 21.0086C43.5118 21.9701 44.2894 22.6994 45.2312 22.6994Z" fill="#F5F5F5"/>
<path d="M53.5437 36.3364C55.3179 36.3364 56.7088 35.4523 57.3002 34.1151H57.355V36.1927H60.5091V19.4836H57.3111V26.1031H57.2454C56.6431 24.7549 55.296 23.8819 53.5547 23.8819C50.5538 23.8819 48.6044 26.28 48.6044 30.0926C48.6044 33.9273 50.5429 36.3364 53.5437 36.3364ZM54.606 26.4899C56.2598 26.4899 57.333 27.9155 57.333 30.1147C57.333 32.3138 56.2598 33.7283 54.606 33.7283C52.9414 33.7283 51.879 32.3359 51.879 30.1036C51.879 27.8934 52.9414 26.4899 54.606 26.4899Z" fill="#F5F5F5"/>
<path d="M68.1207 26.2247C69.5992 26.2247 70.6286 27.2635 70.6834 28.8548H65.4812C65.5908 27.2966 66.6641 26.2247 68.1207 26.2247ZM70.7272 32.4796C70.4205 33.4189 69.4677 33.9936 68.263 33.9936C66.5764 33.9936 65.4484 32.8111 65.4484 31.054V30.8551H73.7718V29.8605C73.7718 26.1584 71.5595 23.8156 68.0878 23.8156C64.5503 23.8156 62.2943 26.291 62.2943 30.1589C62.2943 34.0267 64.5394 36.4027 68.2083 36.4027C71.1434 36.4027 73.3228 34.8334 73.6733 32.4796H70.7272Z" fill="#F5F5F5"/>
<path d="M1.56593 1.7446V4.31946H0V6.64208H1.56593V12.7692C1.56593 15.0288 2.6169 15.9326 5.29685 15.9326C5.91692 15.9326 6.46342 15.8695 6.77871 15.8065V13.5364C6.58953 13.5679 6.28476 13.5889 6.01151 13.5889C5.07615 13.5889 4.63474 13.158 4.63474 12.2647V6.64208H6.77871V4.31946H4.63474V1.7446H1.56593Z" fill="#F5F5F5"/>
<path d="M8.6284 15.8905H11.6972V9.32204C11.6972 7.76661 12.5905 6.70514 14.1039 6.70514C15.5648 6.70514 16.3214 7.61948 16.3214 9.13286V15.8905H19.3903V8.49178C19.3903 5.81182 17.9084 4.1513 15.3441 4.1513C13.5784 4.1513 12.3593 4.92901 11.7077 6.38985H11.6447V0H8.6284V15.8905Z" fill="#F5F5F5"/>
<path d="M26.5894 6.41087C28.0082 6.41087 28.9961 7.39877 29.0486 8.91216H24.0565C24.1616 7.4303 25.1916 6.41087 26.5894 6.41087ZM29.0906 12.3593C28.7964 13.2526 27.882 13.7991 26.726 13.7991C25.1075 13.7991 24.025 12.6746 24.025 11.0036V10.8144H32.0123V9.86854C32.0123 6.34781 29.8894 4.11977 26.5578 4.11977C23.1632 4.11977 20.9982 6.47393 20.9982 10.1523C20.9982 13.8307 23.1527 16.0902 26.6734 16.0902C29.49 16.0902 31.5814 14.5979 31.9177 12.3593H29.0906Z" fill="#F5F5F5"/>
</svg>
